<?xml version="1.0" encoding="utf-8"?>
<svg viewBox="29.201 -2.421 440.77 179.52" xmlns="http://www.w3.org/2000/svg">
  <defs>
    <filter id="editing-hover" x="-100%" y="-100%" width="300%" height="300%">
      <feFlood flood-color="#222222" result="flood"/>
      <feComposite operator="in" in2="SourceAlpha" in="flood" result="shadow"/>
      <feOffset dx="-4" dy="-4" in="SourceGraphic" result="offset-1"/>
      <feOffset dx="4" dy="4" in="shadow" result="offset-2"/>
      <feMerge>
        <feMergeNode in="offset-2"/>
        <feMergeNode in="offset-1"/>
      </feMerge>
    </filter>
  </defs>
  <g filter="url(#editing-hover)">
    <g transform="translate(90.0309430360794, 104.29906272888184)">
      <path d="M6.53 0L-0.83 0L10.75-42.24L24.13-42.24L27.07-18.11L38.98-42.24L50.18-42.24L51.33-10.62L51.33-10.62Q51.58-4.35 54.66-2.43L54.66-2.43L54.66-2.43Q53.95-1.15 51.90 0.06L51.90 0.06L51.90 0.06Q49.86 1.28 47.14 1.28L47.14 1.28L47.14 1.28Q44.42 1.28 42.82 0.51L42.82 0.51L42.82 0.51Q41.22-0.26 40.32-1.54L40.32-1.54L40.32-1.54Q38.72-3.84 38.72-8.26L38.72-8.26L38.72-28.03L26.11 0L18.18 0L13.70-28.74L6.53 0ZM72.77-3.52L72.77-3.52L72.77-3.52Q70.78 1.28 64.45 1.28L64.45 1.28L64.45 1.28Q61.18 1.28 59.14-0.96L59.14-0.96L59.14-0.96Q57.41-2.94 57.41-4.93L57.41-4.93L57.41-4.93Q57.41-10.11 59.78-20.22L59.78-20.22L62.14-32.64L75.14-33.92L71.23-13.70L71.23-13.70Q70.14-8.96 70.14-7.30L70.14-7.30L70.14-7.30Q70.14-3.65 72.77-3.52ZM63.30-41.54L63.30-41.54L63.30-41.54Q63.30-44.03 65.38-45.38L65.38-45.38L65.38-45.38Q67.46-46.72 70.46-46.72L70.46-46.72L70.46-46.72Q73.47-46.72 75.30-45.38L75.30-45.38L75.30-45.38Q77.12-44.03 77.12-41.54L77.12-41.54L77.12-41.54Q77.12-39.04 75.10-37.76L75.10-37.76L75.10-37.76Q73.09-36.48 70.08-36.48L70.08-36.48L70.08-36.48Q67.07-36.48 65.18-37.76L65.18-37.76L65.18-37.76Q63.30-39.04 63.30-41.54ZM105.28 1.28L105.28 1.28L105.28 1.28Q97.54 1.28 97.54-4.74L97.54-4.74L97.54-4.74Q97.60-6.40 98.11-9.22L98.11-9.22L99.26-15.10L99.26-15.10Q100.99-23.42 100.99-25.28L100.99-25.28L100.99-25.28Q100.99-28.99 98.82-28.99L98.82-28.99L98.82-28.99Q95.17-28.99 93.25-19.46L93.25-19.46L89.47 0L76.61 1.28L83.26-32.70L93.76-33.92L92.74-27.65L92.74-27.65Q95.74-33.92 104.96-33.92L104.96-33.92L104.96-33.92Q109.44-33.92 111.33-32.03L111.33-32.03L111.33-32.03Q113.22-30.14 113.22-25.92L113.22-25.92L113.22-25.92Q113.22-21.95 111.17-12.67L111.17-12.67L111.17-12.67Q110.21-8.51 110.21-6.94L110.21-6.94L110.21-6.94Q110.21-5.38 111.07-4.48L111.07-4.48L111.07-4.48Q111.94-3.58 113.22-3.46L113.22-3.46L113.22-3.46Q112.58-1.28 110.37 0L110.37 0L110.37 0Q108.16 1.28 105.28 1.28ZM122.88-26.75L122.88-26.75L122.88-26.75Q125.06-29.82 128.35-31.87L128.35-31.87L128.35-31.87Q131.65-33.92 135.68-33.92L135.68-33.92L135.68-33.92Q139.71-33.92 141.63-32.64L141.63-32.64L154.18-33.92L149.82-9.34L149.82-9.34Q147.58 3.20 142.85 8.13L142.85 8.13L142.85 8.13Q138.30 12.80 129.47 12.80L129.47 12.80L129.47 12.80Q122.75 12.80 118.91 10.69L118.91 10.69L118.91 10.69Q115.07 8.58 115.07 5.06L115.07 5.06L115.07 5.06Q115.07 2.43 117.06 0.93L117.06 0.93L117.06 0.93Q119.04-0.58 122.11-0.58L122.11-0.58L122.11-0.58Q124.80-0.58 126.85 0.64L126.85 0.64L126.85 0.64Q128.06 1.28 128.64 2.18L128.64 2.18L128.64 2.18Q127.17 3.46 127.17 5.57L127.17 5.57L127.17 5.57Q127.17 8.32 129.73 8.32L129.73 8.32L129.73 8.32Q134.02 8.32 136.45-1.79L136.45-1.79L136.45-1.79Q137.15-4.54 137.73-7.30L137.73-7.30L137.73-7.30Q134.85-3.78 128.32-3.78L128.32-3.78L128.32-3.78Q123.78-3.78 121.15-5.95L121.15-5.95L121.15-5.95Q118.53-8.13 118.53-13.25L118.53-13.25L118.53-13.25Q118.53-16.45 119.62-20.06L119.62-20.06L119.62-20.06Q120.70-23.68 122.88-26.75ZM131.20-13.06L131.20-13.06L131.20-13.06Q131.20-8.70 133.44-8.70L133.44-8.70L133.44-8.70Q134.98-8.70 136.45-10.37L136.45-10.37L136.45-10.37Q137.60-11.71 138.05-13.70L138.05-13.70L141.31-30.14L141.31-30.14Q140.99-30.21 140.67-30.34L140.67-30.34L140.67-30.34Q140.03-30.59 139.20-30.59L139.20-30.59L139.20-30.59Q135.30-30.59 132.99-24.19L132.99-24.19L132.99-24.19Q131.20-19.20 131.20-13.06ZM198.98-33.92L198.98-33.92L198.98-33.92Q193.79-33.92 190.02-35.65L190.02-35.65L187.97-25.28L200.32-25.28L200.32-25.28Q200.32-21.89 198.62-19.74L198.62-19.74L198.62-19.74Q196.93-17.60 193.86-17.60L193.86-17.60L193.86-17.60Q190.53-17.60 187.46-18.82L187.46-18.82L187.46-18.82Q186.82-19.07 186.75-19.14L186.75-19.14L183.10 0L169.15 0L177.28-42.24L205.82-42.24L205.82-42.24Q205.82-38.34 204-36.13L204-36.13L204-36.13Q202.18-33.92 198.98-33.92ZM206.56-1.92L206.56-1.92L206.56-1.92Q205.06-3.58 204.38-6.21L204.38-6.21L204.38-6.21Q203.71-8.83 203.71-13.12L203.71-13.12L203.71-13.12Q203.71-17.41 205.18-21.31L205.18-21.31L205.18-21.31Q206.66-25.22 209.34-28.03L209.34-28.03L209.34-28.03Q214.85-33.92 223.94-33.92L223.94-33.92L223.94-33.92Q227.20-33.92 229.57-32.83L229.57-32.83L240.51-33.92L235.78-8.96L235.78-8.96Q235.58-8.19 235.58-6.78L235.58-6.78L235.58-6.78Q235.58-5.38 236.45-4.48L236.45-4.48L236.45-4.48Q237.31-3.58 238.59-3.46L238.59-3.46L238.59-3.46Q237.95-1.28 235.62 0L235.62 0L235.62 0Q233.28 1.28 230.66 1.28L230.66 1.28L230.66 1.28Q228.03 1.28 226.27 0.29L226.27 0.29L226.27 0.29Q224.51-0.70 224-2.37L224-2.37L224-2.37Q222.98-0.77 220.80 0.26L220.80 0.26L220.80 0.26Q218.62 1.28 215.71 1.28L215.71 1.28L215.71 1.28Q212.80 1.28 210.43 0.51L210.43 0.51L210.43 0.51Q208.06-0.26 206.56-1.92ZM220.06-27.90L220.06-27.90L220.06-27.90Q219.33-26.75 218.69-24.80L218.69-24.80L218.69-24.80Q218.05-22.85 216.99-17.63L216.99-17.63L216.99-17.63Q215.94-12.42 215.94-8.70L215.94-8.70L215.94-8.70Q215.94-4.99 216.51-3.90L216.51-3.90L216.51-3.90Q217.09-2.82 218.11-2.82L218.11-2.82L218.11-2.82Q220.16-2.82 221.66-4.77L221.66-4.77L221.66-4.77Q223.17-6.72 223.74-10.18L223.74-10.18L227.14-28.93L227.14-28.93Q225.79-30.08 224.22-30.08L224.22-30.08L224.22-30.08Q222.66-30.08 221.73-29.57L221.73-29.57L221.73-29.57Q220.80-29.06 220.06-27.90ZM271.04 1.28L271.04 1.28L271.04 1.28Q263.30 1.28 263.30-4.74L263.30-4.74L263.30-4.74Q263.36-6.40 263.87-9.22L263.87-9.22L265.02-15.10L265.02-15.10Q266.75-23.42 266.75-25.28L266.75-25.28L266.75-25.28Q266.75-28.99 264.58-28.99L264.58-28.99L264.58-28.99Q260.93-28.99 259.01-19.46L259.01-19.46L255.23 0L242.37 1.28L249.02-32.70L259.52-33.92L258.50-27.65L258.50-27.65Q261.50-33.92 270.72-33.92L270.72-33.92L270.72-33.92Q275.20-33.92 277.09-32.03L277.09-32.03L277.09-32.03Q278.98-30.14 278.98-25.92L278.98-25.92L278.98-25.92Q278.98-21.95 276.93-12.67L276.93-12.67L276.93-12.67Q275.97-8.51 275.97-6.94L275.97-6.94L275.97-6.94Q275.97-5.38 276.83-4.48L276.83-4.48L276.83-4.48Q277.70-3.58 278.98-3.46L278.98-3.46L278.98-3.46Q278.34-1.28 276.13 0L276.13 0L276.13 0Q273.92 1.28 271.04 1.28ZM288.64-26.75L288.64-26.75L288.64-26.75Q290.82-29.82 294.11-31.87L294.11-31.87L294.11-31.87Q297.41-33.92 301.44-33.92L301.44-33.92L301.44-33.92Q305.47-33.92 307.39-32.64L307.39-32.64L319.94-33.92L315.58-9.34L315.58-9.34Q313.34 3.20 308.61 8.13L308.61 8.13L308.61 8.13Q304.06 12.80 295.23 12.80L295.23 12.80L295.23 12.80Q288.51 12.80 284.67 10.69L284.67 10.69L284.67 10.69Q280.83 8.58 280.83 5.06L280.83 5.06L280.83 5.06Q280.83 2.43 282.82 0.93L282.82 0.93L282.82 0.93Q284.80-0.58 287.87-0.58L287.87-0.58L287.87-0.58Q290.56-0.58 292.61 0.64L292.61 0.64L292.61 0.64Q293.82 1.28 294.40 2.18L294.40 2.18L294.40 2.18Q292.93 3.46 292.93 5.57L292.93 5.57L292.93 5.57Q292.93 8.32 295.49 8.32L295.49 8.32L295.49 8.32Q299.78 8.32 302.21-1.79L302.21-1.79L302.21-1.79Q302.91-4.54 303.49-7.30L303.49-7.30L303.49-7.30Q300.61-3.78 294.08-3.78L294.08-3.78L294.08-3.78Q289.54-3.78 286.91-5.95L286.91-5.95L286.91-5.95Q284.29-8.13 284.29-13.25L284.29-13.25L284.29-13.25Q284.29-16.45 285.38-20.06L285.38-20.06L285.38-20.06Q286.46-23.68 288.64-26.75ZM296.96-13.06L296.96-13.06L296.96-13.06Q296.96-8.70 299.20-8.70L299.20-8.70L299.20-8.70Q300.74-8.70 302.21-10.37L302.21-10.37L302.21-10.37Q303.36-11.71 303.81-13.70L303.81-13.70L307.07-30.14L307.07-30.14Q306.75-30.21 306.43-30.34L306.43-30.34L306.43-30.34Q305.79-30.59 304.96-30.59L304.96-30.59L304.96-30.59Q301.06-30.59 298.75-24.19L298.75-24.19L298.75-24.19Q296.96-19.20 296.96-13.06Z" style="fill: rgb(221, 221, 221);"/>
    </g>
  </g>
  <style>text {
  font-size: 64px;
  font-family: Arial Black;
  dominant-baseline: central;
  text-anchor: middle;
}</style>
</svg>